<?xml version="1.0" encoding="UTF-8" standalone="no"?>
<!DOCTYPE svg PUBLIC "-//W3C//DTD SVG 1.1//EN" "http://www.w3.org/Graphics/SVG/1.1/DTD/svg11.dtd">
<svg width="100%" height="100%" viewBox="0 0 46 46" version="1.1" xmlns="http://www.w3.org/2000/svg" xmlns:xlink="http://www.w3.org/1999/xlink" xml:space="preserve" xmlns:serif="http://www.serif.com/" style="fill-rule:evenodd;clip-rule:evenodd;stroke-linejoin:round;stroke-miterlimit:1.41421;">
    <path d="M22.7,45.4C35.2,45.4 45.4,35.2 45.4,22.7C45.4,10.2 35.2,0 22.7,0C10.2,0 0,10.2 0,22.7C0,35.2 10.2,45.4 22.7,45.4" style="fill:#fff;fill-rule:nonzero;"/>
    <path d="M19.6,33.1L19.6,12.3C14.3,13.7 11.2,17.5 11.2,22.6C11.2,27.7 14.4,31.7 19.6,33.1M39.8,22.6C39.8,27.4 38.1,31.4 34.7,34.6C31.5,37.7 27,39.4 22.6,39.4C18,39.4 14,37.8 10.7,34.8C7.1,31.6 5.4,27.4 5.4,22.7C5.4,17 8.1,11.9 13,8.6C16,6.6 19.4,5.8 23.9,5.8L24.8,5.8L24.8,33.2C30.3,32.2 33.9,27.9 33.9,22.5C33.9,18.6 31.9,15.3 28.6,13.4L28.6,6.9C36,10 39.8,15.5 39.8,22.6" style="fill:#0080e5;fill-rule:nonzero;"/>
    <g transform="matrix(1,0,0,1,0.757463,0.946523)">
        <path d="M35.192,13.925L35.192,8.344L29.567,8.344L29.567,4.492L35.192,4.492L35.192,-1.089L38.942,-1.089L38.942,4.492L44.581,4.492L44.581,8.344L38.942,8.344L38.942,13.925L35.192,13.925Z" style="fill:#ff0200;fill-rule:nonzero;"/>
    </g>
</svg>
